<svg width="51" height="53" viewBox="0 0 51 53" fill="none" xmlns="http://www.w3.org/2000/svg">
<path d="M37.7732 32.2646C37.0106 32.0151 36.3909 31.5399 35.7534 31.0885C35.253 30.7262 34.7644 30.346 34.3533 29.8411C33.6026 31.5043 32.554 32.9061 31.2671 34.201C31.1778 33.8862 31.0586 33.6367 30.8203 33.4823C30.6535 33.3754 30.7309 33.316 30.8203 33.2209C31.136 32.8824 31.4697 32.5497 31.7557 32.1874C34.4546 28.8135 35.39 24.9228 35.0802 20.6816C35.0564 20.3549 35.0206 20.0223 34.8955 19.6778C34.8121 19.7847 34.7465 19.8738 34.681 19.957C34.1865 20.5569 33.6622 21.1153 32.9056 21.3944L32.8877 21.3766C32.9473 21.2875 33.0068 21.1984 33.0724 21.1093C34.1925 19.5412 34.7883 17.8245 34.5619 15.8762C34.4189 14.6644 33.9958 13.5774 33.126 12.6924C32.8877 12.4488 32.6315 12.2172 32.2442 12.0984C32.4587 12.7161 32.4885 13.3161 32.3813 13.916C32.0714 15.6148 30.9931 16.69 29.4857 17.3968C28.5146 17.8542 27.4898 18.0324 26.4233 17.9849C26.2446 17.979 26.1552 18.0265 26.1016 18.1987C25.9944 18.5136 25.7858 18.763 25.5594 19.0066C24.5287 20.1114 23.1822 20.4916 21.7523 20.6757C20.6918 20.8123 19.6194 20.842 18.5648 21.0321C16.0148 21.4895 13.8104 22.5824 12.0588 24.5129C11.2962 25.3564 10.6527 26.283 10.3548 27.3998C10.1344 28.2195 10.1582 29.0333 10.4025 29.9005C10.4501 29.7698 10.474 29.6807 10.5037 29.6035C11.2842 27.4532 12.5473 25.6831 14.5373 24.4832C15.4607 23.9249 16.4736 23.6398 17.5579 23.5863C17.5222 23.6873 17.4388 23.6754 17.3792 23.6992C16.414 24.0437 15.5442 24.5605 14.8173 25.2792C13.0537 27.0196 12.2375 29.1283 12.4043 31.6053C12.4639 32.5319 12.7558 33.3873 13.3218 34.1357C13.6674 34.5931 14.0785 34.9792 14.6981 35.1871C14.0785 34.0288 13.9653 32.8467 14.144 31.6231C14.3049 30.5123 14.7398 29.5382 15.5561 28.7481C15.568 28.76 15.5859 28.7778 15.5978 28.7897C15.562 28.8907 15.5322 28.9976 15.4965 29.0986C15.1867 29.9599 14.9484 30.839 14.9305 31.7538C14.9007 33.2744 15.4607 34.5693 16.5391 35.6445C16.7 35.8048 16.7 35.8821 16.5332 36.0306C15.9076 36.583 15.6395 37.2958 15.6335 38.1155C15.6276 38.8877 15.6335 39.6599 15.6335 40.4321C15.6335 40.6994 15.6633 40.9667 15.7288 41.2221C16.0148 42.3626 16.8966 43.0694 18.0763 43.0813C19.3751 43.0991 20.6799 43.0873 21.9787 43.0873C25.6488 43.0873 29.3248 43.0932 32.9949 43.0813C34.3235 43.0754 35.253 42.2438 35.4138 40.937C35.533 39.9509 35.4853 38.959 35.4436 37.9729C35.4079 37.1057 35.0504 36.3632 34.2878 35.8761C34.1508 35.793 34.1567 35.7454 34.2759 35.6504C34.8598 35.1752 35.4377 34.6941 36.0215 34.2189C36.6531 33.7021 37.2727 33.1794 37.7791 32.5378C37.8149 32.4547 38.0115 32.3418 37.7732 32.2646ZM15.6097 28.6709C15.6097 28.6709 15.6156 28.6769 15.6216 28.6828C15.6097 28.6769 15.6097 28.6709 15.6097 28.6709ZM27.6149 19.458C28.0022 19.9926 28.1809 20.5925 28.1511 21.2459C28.1213 21.9053 27.8413 22.4815 27.4719 23.1052C28.9972 22.7606 30.2662 22.0657 31.4578 21.1984L31.4756 21.2162C31.2075 22.0122 31.1837 22.8438 31.1003 23.6695C31.0169 24.5011 30.9931 25.3445 30.6415 26.1346C30.5224 26.3959 30.4032 26.5919 30.0815 26.586C29.8968 26.586 29.7121 26.6394 29.4857 26.6751C29.9683 25.9148 30.3019 25.1366 30.4509 24.2932C30.5581 23.6754 30.5879 23.0576 30.5462 22.3745C29.0389 23.5269 27.3528 24.0793 25.4045 24.1209C26.8225 22.8379 27.7102 21.3766 27.6149 19.458ZM30.5343 35.2881C30.5403 35.4603 30.5045 35.5316 30.3079 35.5316C28.872 35.5257 27.4302 35.5257 25.9884 35.5316C25.8335 35.5316 25.7918 35.4841 25.7858 35.3296C25.762 34.605 25.9765 33.9516 26.3399 33.3338C26.6676 32.7754 27.1144 32.3121 27.5672 31.8488C27.8294 31.5815 28.0915 31.3083 28.3477 31.035C28.8065 30.5539 28.878 29.9718 28.7648 29.3481C28.7112 29.057 28.4848 28.9204 28.1392 28.9323C27.8354 28.9382 27.6507 29.0986 27.609 29.4194C27.5732 29.6926 27.5553 29.9718 27.5494 30.245C27.5494 30.4113 27.4958 30.4707 27.3289 30.4648C26.9 30.4529 26.4769 30.4529 26.048 30.4648C25.8812 30.4707 25.8097 30.4173 25.8216 30.245C25.8514 29.7936 25.8395 29.3362 25.9824 28.8966C26.2088 28.2076 26.6855 27.7918 27.4004 27.6611C28.1928 27.5126 28.9674 27.5304 29.7002 27.9403C30.1768 28.2076 30.3734 28.6412 30.4628 29.1461C30.6832 30.4351 30.2185 31.4627 29.2653 32.3181C28.8422 32.6923 28.4133 33.0665 28.0856 33.5298C27.9724 33.6902 27.8532 33.8506 27.8056 34.0822C28.6397 34.0822 29.4559 34.0882 30.2662 34.0763C30.4688 34.0763 30.5522 34.1179 30.5403 34.3377C30.5164 34.6525 30.5224 34.9732 30.5343 35.2881ZM19.7981 40.937C19.7564 41.4538 19.4823 41.7686 18.9759 41.8993C18.5708 42.0062 18.1537 42.0121 17.7426 41.8993C17.1647 41.7389 16.9026 41.3409 16.8787 40.6103C16.8668 40.1945 16.8787 39.7787 16.8787 39.25C16.8966 38.8699 16.837 38.3769 16.9085 37.8838C17.0158 37.1889 17.2958 36.8919 17.9809 36.7731C18.3325 36.7137 18.6959 36.7196 19.0415 36.8384C19.4823 36.9869 19.7624 37.3017 19.8041 37.771C19.8756 38.8283 19.8815 39.8856 19.7981 40.937ZM19.536 26.6454C17.5698 28.6234 17.4447 31.7478 19.244 33.8743C19.3155 33.9575 19.387 34.0407 19.4526 34.1238C19.9113 34.6584 19.9113 34.6584 19.5836 35.3296C18.3861 34.4089 17.5401 33.2506 17.2481 31.7657C16.8906 29.9658 17.2481 28.3026 18.4218 26.8592C19.2917 25.796 20.4416 25.196 21.8 24.9881C21.8059 24.9941 21.8178 25.006 21.8238 25.0119C21.0135 25.493 20.2033 25.9742 19.536 26.6454ZM23.355 32.5497C22.8843 32.8289 22.4256 32.9358 21.9251 32.8705C21.0493 32.7576 20.5309 32.229 20.5011 31.338C20.4773 30.6074 20.4833 29.8708 20.5071 29.1402C20.525 28.5165 21.0254 27.9165 21.651 27.7324C22.3541 27.5245 23.069 27.5186 23.7601 27.7562C24.6896 28.0769 24.9279 28.6293 24.9636 29.4966C25.0173 30.9281 24.9994 32.3656 24.9756 33.7971C24.9577 34.8426 24.2487 35.5375 23.1643 35.6266C22.6103 35.6742 22.0562 35.6742 21.5259 35.4603C20.9122 35.2108 20.4356 34.3733 20.5369 33.7437C20.5548 33.6367 20.6084 33.613 20.6978 33.6189C21.1327 33.6189 21.5736 33.6189 22.0085 33.6189C22.1336 33.6189 22.1694 33.6664 22.1872 33.7912C22.2528 34.201 22.4196 34.3377 22.7949 34.3198C23.1405 34.302 23.3431 34.1001 23.355 33.7199C23.3669 33.3397 23.355 32.9655 23.355 32.5497ZM23.5337 41.2518C23.3192 41.6854 22.9141 41.8517 22.4553 41.8696C21.9728 41.8933 21.4842 41.8636 20.9957 41.8814C20.799 41.8874 20.7693 41.7983 20.7752 41.632C20.7812 40.8716 20.7752 40.1054 20.7752 39.3451C20.7752 38.5848 20.7812 37.8185 20.7693 37.0582C20.7633 36.8622 20.8288 36.8028 21.0195 36.8087C21.7225 36.8206 22.4315 36.8206 23.1346 36.8087C23.3073 36.8087 23.3729 36.8503 23.3788 37.0404C23.3907 37.7947 23.3967 37.7947 22.652 37.7888C22.4553 37.7888 22.2528 37.7947 22.0562 37.7888C21.9013 37.7829 21.8178 37.8126 21.8298 37.9967C21.8476 38.2699 21.7404 38.6085 21.8655 38.8105C21.9966 39.0243 22.36 38.8639 22.6162 38.8877C23.2239 38.9471 23.6588 39.4223 23.7244 40.1232C23.7601 40.5212 23.7065 40.9013 23.5337 41.2518ZM27.1502 37.771C27.0251 37.9551 26.7093 37.8363 26.4769 37.8304C26.2505 37.8304 26.2744 37.9551 26.2744 38.0977C26.2744 39.256 26.2684 40.4083 26.2803 41.5666C26.2803 41.8042 26.2267 41.9111 25.9705 41.8814C25.7203 41.8458 25.3807 41.9943 25.2377 41.8161C25.1126 41.6676 25.202 41.3409 25.196 41.0974C25.196 40.6816 25.196 40.2658 25.196 39.85C25.196 39.256 25.19 38.662 25.202 38.068C25.2079 37.8898 25.1602 37.8363 24.9696 37.8304C24.2606 37.8244 24.2666 37.8185 24.2606 37.0938C24.2606 36.88 24.3083 36.8028 24.5406 36.8087C25.3449 36.8206 26.1493 36.8206 26.9476 36.8087C27.1323 36.8087 27.2098 36.8622 27.18 37.0404C27.18 37.0522 27.18 37.0582 27.18 37.0701C27.18 37.3136 27.2634 37.6106 27.1502 37.771ZM30.6117 39.0124C30.4688 39.6718 30.0577 39.9688 29.3129 39.9747C28.9078 39.9806 28.9078 39.9806 28.9078 40.3846C28.9078 40.7885 28.8959 41.1983 28.9137 41.6023C28.9197 41.8161 28.872 41.9171 28.6397 41.8874C28.3775 41.8517 28.0379 42.0002 27.8711 41.822C27.7162 41.6617 27.8294 41.329 27.8294 41.0795C27.8234 40.5093 27.8294 39.9331 27.8294 39.3629C27.8294 38.6026 27.8354 37.8423 27.8234 37.0819C27.8234 36.8919 27.8651 36.8146 28.0677 36.8265C28.6218 36.8562 29.1759 36.7909 29.73 36.8681C30.2066 36.9394 30.4985 37.2007 30.6058 37.67C30.7011 38.1036 30.713 38.561 30.6117 39.0124ZM34.3235 38.0086C34.3414 38.9174 34.3474 39.8262 34.3235 40.735C34.3057 41.5726 33.7456 42.0181 32.8162 41.9765C32.6494 41.9705 32.4766 41.9587 32.3157 41.923C31.7497 41.7923 31.4161 41.3647 31.3982 40.735C31.3863 40.2836 31.3982 39.8262 31.3982 39.3688C31.3982 38.9233 31.3922 38.4778 31.3982 38.0323C31.4101 37.3255 31.7557 36.9275 32.4468 36.7849C32.7209 36.7315 33.0009 36.7255 33.2749 36.779C33.9601 36.9216 34.3116 37.3077 34.3235 38.0086Z" fill="#1D1D1D"/>
<path d="M39.3279 29.5144C38.5951 28.2076 38.4462 26.7642 38.3866 25.3089C38.3151 23.5566 38.4342 21.8102 38.5117 20.0639C38.5892 18.3116 38.5891 16.5652 38.2555 14.8367C37.767 12.2825 36.5039 10.2629 34.216 8.93236C34.0611 8.84326 33.9062 8.74229 33.6858 8.61161C34.4186 8.61161 35.0621 8.62943 35.6996 8.55221C36.5754 8.44529 37.4154 8.23739 38.1542 7.73843C38.8275 7.28105 39.1969 6.64547 39.2386 5.82575C39.2564 5.46936 39.2028 5.43372 38.8573 5.48718C38.4164 5.55846 37.9695 5.60004 37.5227 5.58222C35.7293 5.52282 33.9479 5.27334 32.1725 5.0298C30.1646 4.75656 28.1509 4.51302 26.1252 4.39422C24.7727 4.317 23.4322 4.3467 22.0857 4.50708C19.8217 4.78032 17.7007 5.49312 15.7465 6.65735C15.0494 7.07315 14.3821 7.54241 13.822 8.18987C14.1259 8.27897 14.4 8.35619 14.6681 8.43341C15.812 8.77199 16.8785 9.25906 17.6947 10.1738C17.9628 10.4708 18.1594 10.8153 18.3977 11.1302C19.3987 12.437 20.6975 13.3755 22.1214 14.1774C22.8066 14.5635 23.5454 14.8367 24.2067 15.2525C25.0885 15.8168 25.8154 16.5712 26.5482 17.3077C26.721 17.48 26.8878 17.5453 27.1261 17.5097C28.0972 17.3671 29.0148 17.0642 29.8608 16.5652C31.8329 15.3891 32.4465 12.924 30.9153 11.0945C30.5162 10.6193 30.0217 10.257 29.545 9.87088C29.5569 9.859 29.5688 9.84712 29.5808 9.83524C29.8727 9.89464 30.1408 10.0313 30.4089 10.156C32.4108 11.0529 33.9598 12.4191 34.8833 14.4268C35.4434 15.6445 35.6281 16.9454 35.6757 18.2641C35.7174 19.3154 35.7115 20.3728 35.6459 21.4301C35.5983 22.1666 35.5566 22.9091 35.5029 23.6457C35.4553 24.2575 35.3838 24.8753 35.348 25.4812C35.3123 26.1524 35.2885 26.8355 35.3897 27.5126C35.5864 28.8491 36.0392 30.0668 37.1116 30.9638C38.19 31.8666 39.4054 32.0686 40.728 31.5637C40.9187 31.4924 41.0915 31.3914 41.2643 31.2132C40.9008 31.1419 40.6327 30.9756 40.3825 30.7856C39.9297 30.441 39.602 30.0015 39.3279 29.5144ZM24.4927 7.72061C24.9991 8.13047 25.4102 8.53439 25.6307 9.09868C26.0954 10.2926 25.5949 11.6291 24.3914 12.3003C23.3071 12.9062 22.1572 12.9537 21.0252 12.4488C19.7502 11.8786 19.2616 10.6906 19.6787 9.22936C18.8982 9.41944 18.1535 9.46102 17.516 8.80168C17.7483 8.78386 17.9568 8.78386 18.1654 8.75416C18.8207 8.66507 19.4046 8.37995 20.0004 8.12453C21.192 7.60775 22.4074 7.20383 23.7241 7.10285C25.2076 6.98999 26.6197 7.20383 27.9602 7.83941C28.3653 8.02949 28.7526 8.26709 29.0684 8.60567C27.6206 8.02355 26.1133 7.76219 24.4927 7.72061Z" fill="#1D1D1D"/>
<path d="M11.3321 16.2564C11.5764 16.5652 11.8504 16.8385 12.2437 17.0939C12.1543 16.7553 12.1841 16.4761 12.2198 16.2029C12.3152 15.3951 12.6726 14.7832 13.477 14.4862C13.9655 14.308 14.4719 14.2249 14.9903 14.2011C16.1938 14.1477 17.3854 14.2605 18.565 14.4922C19.9175 14.7595 21.1627 15.2703 22.247 16.1316C22.2292 16.1494 22.2172 16.1613 22.1994 16.1791C22.1398 16.1613 22.0802 16.1554 22.0266 16.1316C20.412 15.4248 18.7438 14.8961 16.9683 14.8129C15.9555 14.7654 14.9426 14.7238 13.9417 14.9139C13.5425 14.9911 13.1552 15.1278 12.905 15.496C12.8037 15.6445 12.7918 15.7396 13.0003 15.7812C13.1969 15.8227 13.3816 15.8821 13.5782 15.9178C14.7341 16.1554 15.9078 16.2801 17.0517 16.5712C17.3496 16.6484 17.6475 16.7256 17.9097 16.8919C18.2731 17.1236 18.3208 17.3968 18.0586 17.7354C17.9812 17.8364 17.8858 17.9255 17.7905 18.0086C17.4747 18.2819 17.1113 18.4838 16.7538 18.6977C15.872 19.2323 14.9367 19.6778 14.1442 20.349C13.9357 20.5272 13.757 20.7173 13.6676 20.9905C13.7093 21.0024 13.7212 21.0024 13.7332 21.0024C13.9238 20.9549 14.1204 20.9133 14.3111 20.8598C15.9972 20.3965 17.713 20.1055 19.4647 20.1114C20.2511 20.1114 21.0316 20.153 21.8181 20.1173C22.8369 20.0639 23.7544 19.7194 24.4813 18.9709C25.1962 18.2344 25.2677 17.3612 24.6779 16.5237C24.4574 16.2148 24.1834 15.9594 23.8795 15.7277C23.1348 15.1575 22.2709 14.7951 21.4427 14.3674C20.0783 13.6665 18.8748 12.7696 17.8977 11.5697C16.8313 10.2629 15.455 9.42538 13.8225 8.98582C13.6855 8.95018 13.5604 8.92642 13.4293 9.02146C12.6309 9.5917 11.8385 10.1738 11.2129 10.9401C10.5397 11.7657 10.1226 12.6805 10.2478 13.7794C10.361 14.7179 10.7601 15.5257 11.3321 16.2564ZM13.9059 10.7262C13.9178 10.6787 14.0013 10.6371 14.0608 10.6074C14.7281 10.257 15.4431 10.4649 15.7827 11.1302C15.1571 11.2668 14.5851 11.2133 14.0549 10.8807C13.9893 10.845 13.8821 10.8213 13.9059 10.7262Z" fill="#1D1D1D"/>
<path d="M23.2956 29.4906C23.2956 29.4609 23.2956 29.4312 23.2896 29.4015C23.236 29.0808 23.0573 28.9323 22.7236 28.9263C22.384 28.9204 22.2172 29.0333 22.1695 29.3659C22.0861 29.9361 22.104 30.5064 22.1576 31.0766C22.1934 31.4033 22.4019 31.534 22.7534 31.5043C23.093 31.4805 23.2777 31.3142 23.2896 30.9934C23.3016 30.738 23.2896 30.4826 23.2896 30.2272C23.2956 29.9837 23.2956 29.7342 23.2956 29.4906Z" fill="#1D1D1D"/>
<path d="M18.72 38.0086C18.7021 37.7947 18.5651 37.6878 18.3625 37.6819C18.1599 37.6759 18.0229 37.7828 17.9812 37.9848C17.9633 38.068 17.9574 38.163 17.9574 38.2462C17.9574 38.6204 17.9574 38.9946 17.9574 39.3688C17.9574 39.7609 17.9514 40.1588 17.9574 40.5509C17.9633 40.8835 18.0884 41.0439 18.3387 41.0498C18.5889 41.0617 18.7319 40.9132 18.7378 40.5746C18.7557 39.9331 18.7498 39.2916 18.7498 38.6501C18.7498 38.4422 18.7379 38.2283 18.72 38.0086Z" fill="#1D1D1D"/>
<path d="M32.8343 37.6819C32.5841 37.7056 32.4769 37.8541 32.4769 38.0977C32.4828 38.5194 32.4769 38.9471 32.4769 39.3688C32.4769 39.7846 32.4709 40.2004 32.4769 40.6103C32.4828 40.9073 32.602 41.032 32.8522 41.032C33.1442 41.032 33.2276 40.8419 33.2335 40.6043C33.2395 39.7668 33.2395 38.9233 33.2335 38.0858C33.2335 37.8304 33.0607 37.664 32.8343 37.6819Z" fill="#1D1D1D"/>
<path d="M22.1156 39.7312C21.8951 39.6777 21.8058 39.7787 21.8236 40.0282C21.8415 40.2717 21.8356 40.5212 21.8236 40.7647C21.8177 40.9073 21.8534 40.9726 22.0143 40.9726C22.5088 40.9845 22.7292 40.6637 22.6041 40.1054C22.5505 39.85 22.4194 39.7015 22.1156 39.7312Z" fill="#1D1D1D"/>
<path d="M29.0925 37.7116C28.7767 37.7175 28.9435 37.9432 28.9137 38.0739C28.8899 38.1749 28.9078 38.2877 28.9078 38.4006C28.9078 38.5669 28.9078 38.7332 28.9078 38.9055C28.9078 38.9827 28.8958 39.054 29.015 39.0718C29.3308 39.1312 29.5691 38.9708 29.5989 38.6501C29.6168 38.4659 29.6108 38.2759 29.5989 38.0917C29.587 37.7947 29.444 37.7056 29.0925 37.7116Z" fill="#1D1D1D"/>
<path d="M22.7414 8.15422C21.6929 8.05324 20.5787 8.78386 20.4834 9.9778C20.4 11.0351 21.1864 11.8905 22.384 12.0093C23.4743 12.1102 24.4931 11.2905 24.5944 10.2273C24.6956 9.19966 23.8675 8.26114 22.7414 8.15422ZM22.801 9.859C22.5329 9.85306 22.3482 9.65704 22.3482 9.3838C22.3542 9.09868 22.5567 8.90266 22.8427 8.91454C23.1108 8.92642 23.3015 9.12244 23.2955 9.39568C23.2955 9.66892 23.087 9.86494 22.801 9.859Z" fill="#1D1D1D"/>
<path d="M0.00611201 0C0.00611201 5.542 0.0120699 10.1798 0.000154084 15.7218C-0.00580384 17.9552 0.161018 20.1827 0.50062 22.3864C0.709147 23.7526 1.00109 25.1129 1.36452 26.4494C2.01989 28.8551 2.90762 31.1657 4.0575 33.3873C5.51124 36.2028 7.34032 38.757 9.4673 41.1092C11.7373 43.6159 14.3051 45.7899 17.0279 47.7858C19.6673 49.7222 22.4615 51.4092 25.3452 52.9536C25.4941 53.0308 25.5835 53.0011 25.7146 52.9417C26.3342 52.6566 26.9121 52.2883 27.5079 51.9556C31.738 49.5737 35.7 46.8057 39.245 43.4852C42.3372 40.5925 44.905 37.2958 46.8712 33.5417C47.4908 32.3596 48.033 31.142 48.5155 29.8946C48.9922 28.659 49.3854 27.3938 49.725 26.1108C50.0527 24.8634 50.3148 23.6041 50.5234 22.3389C50.6664 21.4657 50.7438 20.5866 50.8332 19.7015C50.9345 18.6858 51 17.6701 51 16.6484C51 10.7975 51 5.85088 51 0H0.00611201ZM48.5453 16.9513C48.4977 21.1747 47.747 25.2792 46.1681 29.2115C44.8395 32.526 43.0045 35.5435 40.7107 38.2759C38.0534 41.4419 34.9017 44.0495 31.5295 46.4077C29.7064 47.6789 27.8177 48.8431 25.8873 49.942C25.649 50.0786 25.4643 50.1142 25.1903 49.9598C21.7585 47.9996 18.4757 45.8196 15.4312 43.3011C12.5416 40.9073 9.96776 38.2105 7.90632 35.0564C5.89254 31.9735 4.40306 28.659 3.51533 25.0832C3.06849 23.2774 2.77655 21.4479 2.61568 19.5946C2.49057 18.175 2.45482 16.7553 2.45482 15.3297C2.46078 11.2311 2.46078 7.13255 2.45482 3.0399C2.45482 2.74884 2.5144 2.65974 2.82421 2.65974C8.06719 2.67162 13.3042 2.66568 18.5472 2.66568C20.8708 2.66568 23.1944 2.66568 25.518 2.66568C33.0726 2.66568 40.6273 2.66568 48.1819 2.65974C48.4679 2.65974 48.5692 2.70726 48.5692 3.02208C48.5513 7.66715 48.593 12.3063 48.5453 16.9513Z" fill="#1D1D1D"/>
</svg>
