<svg width="15" height="17" viewBox="0 0 15 17" fill="none" xmlns="http://www.w3.org/2000/svg">
<path d="M14.9212 0C12.4492 0.00172487 9.97722 0.00172487 7.5035 0.00172487C5.03153 0.00172487 2.55957 0.00172487 0.0875964 0C0.0262789 0 0 0.00689948 0 0.079344C0.00175193 2.11124 0.00350385 4.14314 0 6.17503C0 6.82531 0.047302 7.47041 0.147162 8.11034C0.208479 8.50706 0.294324 8.90205 0.401191 9.29015C0.593903 9.98872 0.85494 10.6597 1.19306 11.3048C1.62053 12.1224 2.15837 12.8641 2.78381 13.5471C3.4513 14.275 4.20638 14.9063 5.00701 15.4859C5.78311 16.0482 6.60477 16.538 7.4527 16.9865C7.4965 17.0089 7.52278 17.0003 7.56132 16.9831C7.74352 16.9003 7.91345 16.7933 8.08865 16.6967C9.33252 16.0051 10.4975 15.2013 11.5399 14.2371C12.4492 13.3971 13.2043 12.4398 13.7824 11.3496C13.9646 11.0064 14.124 10.6528 14.2659 10.2906C14.4061 9.9318 14.5217 9.5644 14.6216 9.19183C14.7179 8.82961 14.795 8.46393 14.8563 8.09654C14.8984 7.84298 14.9212 7.5877 14.9474 7.33069C14.9772 7.03574 14.9965 6.74079 14.9965 6.44411C14.9982 4.3208 14.9982 2.19576 15 0.0724445C14.9982 0.0103492 14.9807 0 14.9212 0Z" fill="#B9C686"/>
</svg>
